<?xml version="1.0" encoding="UTF-8"?>
<svg xmlns="http://www.w3.org/2000/svg" xmlns:xlink="http://www.w3.org/1999/xlink" width="621pt" height="33pt" viewBox="0 0 621 33">
<path fill-rule="nonzero" fill="rgb(82.063293%, 11.061096%, 21.353149%)" fill-opacity="1" d="M 557.128906 26.917969 L 620.128906 26.917969 L 620.128906 27.488281 L 557.128906 27.488281 L 557.128906 26.917969 "/>
<path fill-rule="nonzero" fill="rgb(82.063293%, 11.061096%, 21.353149%)" fill-opacity="1" d="M 516.089844 7.902344 C 536.09375 -9.53125 553.050781 8.242188 543.238281 21.679688 C 543.238281 21.679688 542.597656 22.773438 540.898438 23.960938 C 545.65625 21.496094 550.160156 10.113281 542.9375 1.957031 C 555.347656 11.902344 547.351562 22.625 546.949219 22.5625 C 547.984375 21.695312 548.535156 21.011719 549.308594 19.707031 C 545.242188 29.824219 536.972656 33.484375 527.855469 29.859375 C 530.40625 31.785156 534.367188 32.292969 538.160156 32.746094 C 521.628906 35.070312 514.644531 18.054688 521.230469 11.570312 C 518.097656 14.597656 517.269531 16.667969 516.160156 20.683594 C 515.402344 15.082031 520.820312 7.664062 527.277344 5.625 C 534.363281 3.273438 540.050781 6.714844 541.503906 10.609375 C 539.453125 3.316406 529.683594 1.785156 519.03125 8.230469 C 520.664062 6.042969 526.074219 3.378906 528.859375 3.324219 C 527.457031 2.925781 521.734375 4.234375 516.089844 7.902344 "/>
<path fill="none" stroke-width="0.152" stroke-linecap="butt" stroke-linejoin="miter" stroke="rgb(82.063293%, 11.061096%, 21.353149%)" stroke-opacity="1" stroke-miterlimit="4" d="M 5160.898438 250.976562 C 5360.9375 425.3125 5530.507812 247.578125 5432.382812 113.203125 C 5432.382812 113.203125 5425.976562 102.265625 5408.984375 90.390625 C 5456.5625 115.039062 5501.601562 228.867188 5429.375 310.429688 C 5553.476562 210.976562 5473.515625 103.75 5469.492188 104.375 C 5479.84375 113.046875 5485.351562 119.882812 5493.085938 132.929688 C 5452.421875 31.757812 5369.726562 -4.84375 5278.554688 31.40625 C 5304.0625 12.148438 5343.671875 7.070312 5381.601562 2.539062 C 5216.289062 -20.703125 5146.445312 149.453125 5212.304688 214.296875 C 5180.976562 184.023438 5172.695312 163.320312 5161.601562 123.164062 C 5154.023438 179.179688 5208.203125 253.359375 5272.773438 273.75 C 5343.632812 297.265625 5400.507812 262.851562 5415.039062 223.90625 C 5394.53125 296.835938 5296.835938 312.148438 5190.3125 247.695312 C 5206.640625 269.570312 5260.742188 296.210938 5288.59375 296.757812 C 5274.570312 300.742188 5217.34375 287.65625 5160.898438 250.976562 Z M 5160.898438 250.976562 " transform="matrix(0.1, 0, 0, -0.1, 0, 33)"/>
<path fill-rule="nonzero" fill="rgb(98.786926%, 81.111145%, 20.317078%)" fill-opacity="1" d="M 527.328125 15.59375 C 527.328125 12.445312 529.878906 9.890625 533.03125 9.890625 C 536.179688 9.890625 538.734375 12.445312 538.734375 15.59375 C 538.734375 18.746094 536.179688 21.296875 533.03125 21.296875 C 529.878906 21.296875 527.328125 18.746094 527.328125 15.59375 "/>
<path fill-rule="nonzero" fill="rgb(98.843384%, 81.938171%, 24.005127%)" fill-opacity="1" d="M 527.488281 15.59375 C 527.488281 12.535156 529.96875 10.050781 533.03125 10.050781 C 536.09375 10.050781 538.574219 12.535156 538.574219 15.59375 C 538.574219 18.65625 536.09375 21.140625 533.03125 21.140625 C 529.96875 21.140625 527.488281 18.65625 527.488281 15.59375 "/>
<path fill-rule="nonzero" fill="rgb(98.899841%, 82.769775%, 27.558899%)" fill-opacity="1" d="M 527.648438 15.59375 C 527.648438 12.621094 530.058594 10.210938 533.03125 10.210938 C 536.003906 10.210938 538.414062 12.621094 538.414062 15.59375 C 538.414062 18.570312 536.003906 20.976562 533.03125 20.976562 C 530.058594 20.976562 527.648438 18.570312 527.648438 15.59375 "/>
<path fill-rule="nonzero" fill="rgb(98.957825%, 83.610535%, 31.149292%)" fill-opacity="1" d="M 527.808594 15.59375 C 527.808594 12.710938 530.144531 10.371094 533.03125 10.371094 C 535.914062 10.371094 538.253906 12.710938 538.253906 15.59375 C 538.253906 18.480469 535.914062 20.820312 533.03125 20.820312 C 530.144531 20.820312 527.808594 18.480469 527.808594 15.59375 "/>
<path fill-rule="nonzero" fill="rgb(99.014282%, 84.463501%, 34.779358%)" fill-opacity="1" d="M 527.96875 15.59375 C 527.96875 12.796875 530.234375 10.53125 533.03125 10.53125 C 535.828125 10.53125 538.09375 12.796875 538.09375 15.59375 C 538.09375 18.390625 535.828125 20.65625 533.03125 20.65625 C 530.234375 20.65625 527.96875 18.390625 527.96875 15.59375 "/>
<path fill-rule="nonzero" fill="rgb(99.072266%, 85.325623%, 38.446045%)" fill-opacity="1" d="M 528.128906 15.59375 C 528.128906 12.886719 530.320312 10.691406 533.03125 10.691406 C 535.738281 10.691406 537.933594 12.886719 537.933594 15.59375 C 537.933594 18.304688 535.738281 20.496094 533.03125 20.496094 C 530.320312 20.496094 528.128906 18.304688 528.128906 15.59375 "/>
<path fill-rule="nonzero" fill="rgb(99.130249%, 86.199951%, 42.153931%)" fill-opacity="1" d="M 528.289062 15.59375 C 528.289062 12.976562 530.410156 10.851562 533.03125 10.851562 C 535.648438 10.851562 537.773438 12.976562 537.773438 15.59375 C 537.773438 18.214844 535.648438 20.339844 533.03125 20.339844 C 530.410156 20.339844 528.289062 18.214844 528.289062 15.59375 "/>
<path fill-rule="nonzero" fill="rgb(99.189758%, 87.083435%, 45.896912%)" fill-opacity="1" d="M 528.445312 15.59375 C 528.445312 13.0625 530.5 11.011719 533.03125 11.011719 C 535.5625 11.011719 537.613281 13.0625 537.613281 15.59375 C 537.613281 18.125 535.5625 20.179688 533.03125 20.179688 C 530.5 20.179688 528.445312 18.125 528.445312 15.59375 "/>
<path fill-rule="nonzero" fill="rgb(99.247742%, 87.979126%, 49.74823%)" fill-opacity="1" d="M 528.605469 15.59375 C 528.605469 13.152344 530.589844 11.171875 533.03125 11.171875 C 535.472656 11.171875 537.453125 13.152344 537.453125 15.59375 C 537.453125 18.039062 535.472656 20.019531 533.03125 20.019531 C 530.589844 20.019531 528.605469 18.039062 528.605469 15.59375 "/>
<path fill-rule="nonzero" fill="rgb(99.307251%, 88.887024%, 53.594971%)" fill-opacity="1" d="M 528.769531 15.59375 C 528.769531 13.242188 530.675781 11.332031 533.03125 11.332031 C 535.386719 11.332031 537.292969 13.242188 537.292969 15.59375 C 537.292969 17.949219 535.386719 19.859375 533.03125 19.859375 C 530.675781 19.859375 528.769531 17.949219 528.769531 15.59375 "/>
<path fill-rule="nonzero" fill="rgb(99.36676%, 89.825439%, 57.48291%)" fill-opacity="1" d="M 528.929688 15.59375 C 528.929688 13.328125 530.765625 11.492188 533.03125 11.492188 C 535.296875 11.492188 537.132812 13.328125 537.132812 15.59375 C 537.132812 17.859375 535.296875 19.699219 533.03125 19.699219 C 530.765625 19.699219 528.929688 17.859375 528.929688 15.59375 "/>
<path fill-rule="nonzero" fill="rgb(99.42627%, 90.751648%, 61.404419%)" fill-opacity="1" d="M 529.089844 15.59375 C 529.089844 13.417969 530.851562 11.652344 533.03125 11.652344 C 535.207031 11.652344 536.972656 13.417969 536.972656 15.59375 C 536.972656 17.773438 535.207031 19.539062 533.03125 19.539062 C 530.851562 19.539062 529.089844 17.773438 529.089844 15.59375 "/>
<path fill-rule="nonzero" fill="rgb(99.485779%, 91.687012%, 65.365601%)" fill-opacity="1" d="M 529.246094 15.59375 C 529.246094 13.507812 530.941406 11.8125 533.03125 11.8125 C 535.121094 11.8125 536.8125 13.507812 536.8125 15.59375 C 536.8125 17.683594 535.121094 19.378906 533.03125 19.378906 C 530.941406 19.378906 529.246094 17.683594 529.246094 15.59375 "/>
<path fill-rule="nonzero" fill="rgb(99.545288%, 92.633057%, 69.363403%)" fill-opacity="1" d="M 529.40625 15.59375 C 529.40625 13.59375 531.03125 11.972656 533.03125 11.972656 C 535.03125 11.972656 536.652344 13.59375 536.652344 15.59375 C 536.652344 17.597656 535.03125 19.21875 533.03125 19.21875 C 531.03125 19.21875 529.40625 17.597656 529.40625 15.59375 "/>
<path fill-rule="nonzero" fill="rgb(99.606323%, 93.598938%, 73.405457%)" fill-opacity="1" d="M 529.566406 15.59375 C 529.566406 13.683594 531.117188 12.132812 533.03125 12.132812 C 534.941406 12.132812 536.492188 13.683594 536.492188 15.59375 C 536.492188 17.507812 534.941406 19.058594 533.03125 19.058594 C 531.117188 19.058594 529.566406 17.507812 529.566406 15.59375 "/>
<path fill-rule="nonzero" fill="rgb(99.667358%, 94.569397%, 77.507019%)" fill-opacity="1" d="M 529.726562 15.59375 C 529.726562 13.769531 531.207031 12.292969 533.03125 12.292969 C 534.855469 12.292969 536.332031 13.769531 536.332031 15.59375 C 536.332031 17.417969 534.855469 18.898438 533.03125 18.898438 C 531.207031 18.898438 529.726562 17.417969 529.726562 15.59375 "/>
<path fill-rule="nonzero" fill="rgb(99.726868%, 95.549011%, 81.62384%)" fill-opacity="1" d="M 529.886719 15.59375 C 529.886719 13.859375 531.296875 12.453125 533.03125 12.453125 C 534.765625 12.453125 536.171875 13.859375 536.171875 15.59375 C 536.171875 17.332031 534.765625 18.738281 533.03125 18.738281 C 531.296875 18.738281 529.886719 17.332031 529.886719 15.59375 "/>
<path fill-rule="nonzero" fill="rgb(99.787903%, 96.539307%, 85.777283%)" fill-opacity="1" d="M 530.046875 15.59375 C 530.046875 13.949219 531.382812 12.613281 533.03125 12.613281 C 534.679688 12.613281 536.011719 13.949219 536.011719 15.59375 C 536.011719 17.242188 534.679688 18.578125 533.03125 18.578125 C 531.382812 18.578125 530.046875 17.242188 530.046875 15.59375 "/>
<path fill-rule="nonzero" fill="rgb(99.850464%, 97.547913%, 89.97345%)" fill-opacity="1" d="M 530.207031 15.59375 C 530.207031 14.035156 531.472656 12.773438 533.03125 12.773438 C 534.589844 12.773438 535.851562 14.035156 535.851562 15.59375 C 535.851562 17.152344 534.589844 18.417969 533.03125 18.417969 C 531.472656 18.417969 530.207031 17.152344 530.207031 15.59375 "/>
<path fill-rule="nonzero" fill="rgb(99.911499%, 98.55957%, 94.194031%)" fill-opacity="1" d="M 530.367188 15.59375 C 530.367188 14.125 531.558594 12.933594 533.03125 12.933594 C 534.5 12.933594 535.691406 14.125 535.691406 15.59375 C 535.691406 17.066406 534.5 18.257812 533.03125 18.257812 C 531.558594 18.257812 530.367188 17.066406 530.367188 15.59375 "/>
<path fill-rule="nonzero" fill="rgb(99.972534%, 99.580383%, 98.466492%)" fill-opacity="1" d="M 530.527344 15.59375 C 530.527344 14.214844 531.648438 13.09375 533.03125 13.09375 C 534.414062 13.09375 535.53125 14.214844 535.53125 15.59375 C 535.53125 16.976562 534.414062 18.097656 533.03125 18.097656 C 531.648438 18.097656 530.527344 16.976562 530.527344 15.59375 "/>
<path fill-rule="nonzero" fill="rgb(100%, 100%, 100%)" fill-opacity="1" d="M 527.46875 23.359375 C 527.921875 23.824219 528.441406 24.246094 529.042969 24.59375 C 529.671875 24.957031 530.390625 25.242188 531.195312 25.410156 C 531.746094 25.523438 532.34375 25.585938 532.980469 25.582031 C 533.230469 25.582031 533.472656 25.574219 533.707031 25.554688 C 534.46875 25.5 535.160156 25.363281 535.785156 25.15625 C 536.601562 24.894531 537.304688 24.519531 537.90625 24.070312 C 538.203125 23.851562 538.472656 23.613281 538.71875 23.363281 C 539.09375 22.984375 539.417969 22.578125 539.691406 22.15625 C 540.253906 21.289062 540.609375 20.363281 540.796875 19.515625 C 541.03125 18.457031 541 17.523438 540.777344 16.972656 C 540.738281 16.875 540.707031 16.804688 540.683594 16.757812 C 540.582031 16.582031 540.550781 16.808594 540.257812 17.542969 C 540.171875 17.757812 540.074219 17.972656 539.96875 18.179688 C 539.382812 19.324219 538.484375 20.355469 537.355469 21.117188 C 536.492188 21.699219 535.5 22.121094 534.40625 22.320312 C 533.984375 22.398438 533.546875 22.4375 533.09375 22.441406 C 532.105469 22.449219 531.230469 22.3125 530.445312 22.046875 C 529.203125 21.632812 528.199219 20.894531 527.386719 19.925781 C 526.644531 19.039062 526.058594 17.960938 525.59375 16.75 C 525.59375 16.75 525.554688 16.253906 525.28125 17.089844 C 525.136719 17.527344 525.121094 18.214844 525.265625 19.015625 C 525.429688 19.925781 525.792969 20.980469 526.40625 21.976562 C 526.699219 22.460938 527.054688 22.925781 527.46875 23.359375 "/>
<path fill-rule="nonzero" fill="rgb(99.900818%, 98.425293%, 94.244385%)" fill-opacity="1" d="M 530.300781 15.59375 C 530.300781 14.085938 531.523438 12.863281 533.03125 12.863281 C 534.539062 12.863281 535.761719 14.085938 535.761719 15.59375 C 535.761719 17.101562 534.539062 18.324219 533.03125 18.324219 C 531.523438 18.324219 530.300781 17.101562 530.300781 15.59375 "/>
<path fill-rule="nonzero" fill="rgb(82.063293%, 11.061096%, 21.353149%)" fill-opacity="1" d="M 531.078125 14.089844 L 534.648438 14.097656 C 534.648438 14.097656 534.40625 19.386719 534.355469 19.578125 C 534.300781 19.765625 534.164062 19.886719 534.109375 19.554688 C 533.773438 17.515625 534.390625 14.535156 533.601562 14.554688 C 533.601562 14.554688 533.257812 14.554688 533.253906 14.554688 C 532.957031 14.554688 532.945312 16.453125 532.847656 16.761719 C 532.792969 16.929688 532.699219 16.898438 532.644531 16.804688 C 532.484375 16.523438 532.605469 14.554688 532.238281 14.554688 L 531.929688 14.554688 C 531.769531 14.554688 531.402344 15.816406 531.042969 16.015625 C 530.816406 16.140625 530.671875 16.109375 530.851562 15.886719 C 531.03125 15.664062 531.28125 15.003906 531.253906 14.554688 C 531.253906 14.554688 530.90625 14.554688 530.863281 14.554688 C 530.726562 14.554688 531.078125 14.089844 531.078125 14.089844 "/>
<path fill-rule="nonzero" fill="rgb(82.063293%, 11.061096%, 21.353149%)" fill-opacity="1" d="M 0.128906 26.917969 L 449.480469 26.917969 L 449.480469 27.488281 L 0.128906 27.488281 L 0.128906 26.917969 "/>
<path fill-rule="nonzero" fill="rgb(82.063293%, 11.061096%, 21.353149%)" fill-opacity="1" d="M 349.578125 10 C 349.996094 9.902344 350.667969 9.835938 351.328125 9.835938 C 352.285156 9.835938 352.902344 10 353.355469 10.371094 C 353.738281 10.660156 353.980469 11.097656 353.980469 11.683594 C 353.980469 12.40625 353.496094 13.035156 352.726562 13.308594 L 352.726562 13.34375 C 353.429688 13.507812 354.253906 14.089844 354.253906 15.191406 C 354.253906 15.828125 354.003906 16.3125 353.617188 16.675781 C 353.109375 17.148438 352.273438 17.367188 351.066406 17.367188 C 350.40625 17.367188 349.898438 17.324219 349.578125 17.28125 Z M 350.535156 13.035156 L 351.40625 13.035156 C 352.40625 13.035156 353 12.496094 353 11.78125 C 353 10.921875 352.351562 10.570312 351.382812 10.570312 C 350.945312 10.570312 350.691406 10.605469 350.535156 10.636719 Z M 350.535156 16.578125 C 350.734375 16.609375 351 16.621094 351.339844 16.621094 C 352.328125 16.621094 353.242188 16.257812 353.242188 15.179688 C 353.242188 14.179688 352.375 13.75 351.328125 13.75 L 350.535156 13.75 L 350.535156 16.578125 "/>
<path fill-rule="nonzero" fill="rgb(82.063293%, 11.061096%, 21.353149%)" fill-opacity="1" d="M 356.4375 9.890625 L 356.4375 14.289062 C 356.4375 15.941406 357.175781 16.644531 358.164062 16.644531 C 359.253906 16.644531 359.96875 15.917969 359.96875 14.289062 L 359.96875 9.890625 L 360.9375 9.890625 L 360.9375 14.222656 C 360.9375 16.5 359.734375 17.425781 358.132812 17.425781 C 356.613281 17.425781 355.46875 16.566406 355.46875 14.257812 L 355.46875 9.890625 L 356.4375 9.890625 "/>
<path fill-rule="nonzero" fill="rgb(82.063293%, 11.061096%, 21.353149%)" fill-opacity="1" d="M 362.558594 9.988281 C 363.152344 9.902344 363.847656 9.835938 364.605469 9.835938 C 365.980469 9.835938 366.957031 10.152344 367.605469 10.757812 C 368.277344 11.363281 368.664062 12.222656 368.664062 13.421875 C 368.664062 14.628906 368.277344 15.621094 367.597656 16.300781 C 366.894531 16.996094 365.746094 17.367188 364.308594 17.367188 C 363.613281 17.367188 363.054688 17.347656 362.558594 17.28125 Z M 363.527344 16.554688 C 363.769531 16.597656 364.121094 16.597656 364.492188 16.597656 C 366.539062 16.609375 367.652344 15.457031 367.652344 13.453125 C 367.660156 11.703125 366.671875 10.59375 364.648438 10.59375 C 364.152344 10.59375 363.777344 10.636719 363.527344 10.691406 L 363.527344 16.554688 "/>
<path fill-rule="nonzero" fill="rgb(82.063293%, 11.061096%, 21.353149%)" fill-opacity="1" d="M 369.890625 9.988281 C 370.484375 9.902344 371.179688 9.835938 371.9375 9.835938 C 373.3125 9.835938 374.289062 10.152344 374.941406 10.757812 C 375.609375 11.363281 375.996094 12.222656 375.996094 13.421875 C 375.996094 14.628906 375.609375 15.621094 374.929688 16.300781 C 374.226562 16.996094 373.082031 17.367188 371.640625 17.367188 C 370.945312 17.367188 370.386719 17.347656 369.890625 17.28125 Z M 370.859375 16.554688 C 371.101562 16.597656 371.453125 16.597656 371.828125 16.597656 C 373.871094 16.609375 374.984375 15.457031 374.984375 13.453125 C 374.996094 11.703125 374.003906 10.59375 371.980469 10.59375 C 371.484375 10.59375 371.113281 10.636719 370.859375 10.691406 L 370.859375 16.554688 "/>
<path fill-rule="nonzero" fill="rgb(82.063293%, 11.061096%, 21.353149%)" fill-opacity="1" d="M 378.191406 9.890625 L 378.191406 12.992188 L 381.777344 12.992188 L 381.777344 9.890625 L 382.746094 9.890625 L 382.746094 17.304688 L 381.777344 17.304688 L 381.777344 13.828125 L 378.191406 13.828125 L 378.191406 17.304688 L 377.226562 17.304688 L 377.226562 9.890625 L 378.191406 9.890625 "/>
<path fill-rule="nonzero" fill="rgb(82.063293%, 11.061096%, 21.353149%)" fill-opacity="1" d="M 385.351562 9.890625 L 385.351562 17.304688 L 384.386719 17.304688 L 384.386719 9.890625 L 385.351562 9.890625 "/>
<path fill-rule="nonzero" fill="rgb(82.063293%, 11.061096%, 21.353149%)" fill-opacity="1" d="M 386.800781 16.136719 C 387.230469 16.402344 387.847656 16.609375 388.507812 16.609375 C 389.484375 16.609375 390.058594 16.105469 390.058594 15.355469 C 390.058594 14.664062 389.660156 14.257812 388.660156 13.882812 C 387.449219 13.464844 386.703125 12.828125 386.703125 11.792969 C 386.703125 10.636719 387.660156 9.78125 389.101562 9.78125 C 389.847656 9.78125 390.410156 9.957031 390.726562 10.132812 L 390.464844 10.921875 C 390.230469 10.78125 389.738281 10.570312 389.066406 10.570312 C 388.054688 10.570312 387.671875 11.175781 387.671875 11.683594 C 387.671875 12.363281 388.121094 12.707031 389.144531 13.101562 C 390.398438 13.597656 391.023438 14.191406 391.023438 15.28125 C 391.023438 16.410156 390.1875 17.414062 388.4375 17.414062 C 387.726562 17.414062 386.945312 17.195312 386.546875 16.929688 L 386.800781 16.136719 "/>
<path fill-rule="nonzero" fill="rgb(82.063293%, 11.061096%, 21.353149%)" fill-opacity="1" d="M 398.417969 14.046875 C 398.363281 13.023438 398.296875 11.757812 398.296875 10.847656 L 398.277344 10.847656 C 398.011719 11.703125 397.714844 12.652344 397.339844 13.660156 L 396.03125 17.257812 L 395.304688 17.257812 L 394.097656 13.726562 C 393.742188 12.683594 393.457031 11.726562 393.25 10.847656 L 393.226562 10.847656 C 393.203125 11.769531 393.148438 13.011719 393.085938 14.125 L 392.886719 17.304688 L 391.972656 17.304688 L 392.488281 9.890625 L 393.710938 9.890625 L 394.976562 13.476562 C 395.285156 14.386719 395.527344 15.214844 395.722656 15.984375 L 395.746094 15.984375 C 395.945312 15.234375 396.207031 14.410156 396.539062 13.476562 L 397.859375 9.890625 L 399.078125 9.890625 L 399.539062 17.304688 L 398.59375 17.304688 L 398.417969 14.046875 "/>
<path fill-rule="nonzero" fill="rgb(82.063293%, 11.061096%, 21.353149%)" fill-opacity="1" d="M 401.898438 9.890625 L 401.898438 14.289062 C 401.898438 15.941406 402.636719 16.644531 403.625 16.644531 C 404.714844 16.644531 405.429688 15.917969 405.429688 14.289062 L 405.429688 9.890625 L 406.398438 9.890625 L 406.398438 14.222656 C 406.398438 16.5 405.199219 17.425781 403.59375 17.425781 C 402.074219 17.425781 400.933594 16.566406 400.933594 14.257812 L 400.933594 9.890625 L 401.898438 9.890625 "/>
<path fill-rule="nonzero" fill="rgb(82.063293%, 11.061096%, 21.353149%)" fill-opacity="1" d="M 407.742188 16.136719 C 408.171875 16.402344 408.789062 16.609375 409.449219 16.609375 C 410.429688 16.609375 411 16.105469 411 15.355469 C 411 14.664062 410.605469 14.257812 409.605469 13.882812 C 408.394531 13.464844 407.644531 12.828125 407.644531 11.792969 C 407.644531 10.636719 408.601562 9.78125 410.042969 9.78125 C 410.789062 9.78125 411.351562 9.957031 411.671875 10.132812 L 411.40625 10.921875 C 411.175781 10.78125 410.683594 10.570312 410.011719 10.570312 C 408.996094 10.570312 408.613281 11.175781 408.613281 11.683594 C 408.613281 12.363281 409.0625 12.707031 410.085938 13.101562 C 411.339844 13.597656 411.96875 14.191406 411.96875 15.28125 C 411.96875 16.410156 411.132812 17.414062 409.382812 17.414062 C 408.667969 17.414062 407.886719 17.195312 407.492188 16.929688 L 407.742188 16.136719 "/>
<path fill-rule="nonzero" fill="rgb(82.063293%, 11.061096%, 21.353149%)" fill-opacity="1" d="M 415.609375 9.988281 C 416.203125 9.902344 416.894531 9.835938 417.65625 9.835938 C 419.03125 9.835938 420.007812 10.152344 420.65625 10.757812 C 421.328125 11.363281 421.714844 12.222656 421.714844 13.421875 C 421.714844 14.628906 421.328125 15.621094 420.648438 16.300781 C 419.941406 16.996094 418.800781 17.367188 417.359375 17.367188 C 416.664062 17.367188 416.105469 17.347656 415.609375 17.28125 Z M 416.578125 16.554688 C 416.820312 16.597656 417.171875 16.597656 417.546875 16.597656 C 419.589844 16.609375 420.703125 15.457031 420.703125 13.453125 C 420.714844 11.703125 419.722656 10.59375 417.699219 10.59375 C 417.203125 10.59375 416.828125 10.636719 416.578125 10.691406 L 416.578125 16.554688 "/>
<path fill-rule="nonzero" fill="rgb(82.063293%, 11.061096%, 21.353149%)" fill-opacity="1" d="M 423.925781 9.890625 L 423.925781 17.304688 L 422.957031 17.304688 L 422.957031 9.890625 L 423.925781 9.890625 "/>
<path fill-rule="nonzero" fill="rgb(82.063293%, 11.061096%, 21.353149%)" fill-opacity="1" d="M 426.6875 14.972656 L 425.917969 17.304688 L 424.929688 17.304688 L 427.445312 9.890625 L 428.601562 9.890625 L 431.132812 17.304688 L 430.109375 17.304688 L 429.316406 14.972656 Z M 429.117188 14.222656 L 428.382812 12.089844 C 428.226562 11.605469 428.117188 11.164062 428.007812 10.734375 L 427.976562 10.734375 C 427.875 11.164062 427.753906 11.628906 427.609375 12.078125 L 426.886719 14.222656 L 429.117188 14.222656 "/>
<path fill-rule="nonzero" fill="rgb(82.063293%, 11.061096%, 21.353149%)" fill-opacity="1" d="M 438.46875 14.046875 C 438.414062 13.023438 438.347656 11.757812 438.347656 10.847656 L 438.324219 10.847656 C 438.0625 11.703125 437.765625 12.652344 437.390625 13.660156 L 436.082031 17.257812 L 435.355469 17.257812 L 434.144531 13.726562 C 433.792969 12.683594 433.507812 11.726562 433.296875 10.847656 L 433.273438 10.847656 C 433.253906 11.769531 433.199219 13.011719 433.132812 14.125 L 432.933594 17.304688 L 432.019531 17.304688 L 432.539062 9.890625 L 433.761719 9.890625 L 435.023438 13.476562 C 435.332031 14.386719 435.574219 15.214844 435.773438 15.984375 L 435.796875 15.984375 C 435.992188 15.234375 436.257812 14.410156 436.585938 13.476562 L 437.90625 9.890625 L 439.128906 9.890625 L 439.589844 17.304688 L 438.644531 17.304688 L 438.46875 14.046875 "/>
<path fill-rule="nonzero" fill="rgb(82.063293%, 11.061096%, 21.353149%)" fill-opacity="1" d="M 442.25 14.972656 L 441.480469 17.304688 L 440.492188 17.304688 L 443.011719 9.890625 L 444.164062 9.890625 L 446.695312 17.304688 L 445.671875 17.304688 L 444.878906 14.972656 Z M 444.683594 14.222656 L 443.945312 12.089844 C 443.789062 11.605469 443.679688 11.164062 443.570312 10.734375 L 443.539062 10.734375 C 443.4375 11.164062 443.316406 11.628906 443.175781 12.078125 L 442.449219 14.222656 L 444.683594 14.222656 "/>
<path fill-rule="nonzero" fill="rgb(82.063293%, 11.061096%, 21.353149%)" fill-opacity="1" d="M 447.6875 17.304688 L 447.6875 9.890625 L 448.742188 9.890625 L 451.105469 13.640625 C 451.644531 14.507812 452.085938 15.289062 452.429688 16.050781 L 452.460938 16.039062 C 452.371094 15.046875 452.351562 14.148438 452.351562 13.003906 L 452.351562 9.890625 L 453.253906 9.890625 L 453.253906 17.304688 L 452.285156 17.304688 L 449.929688 13.539062 C 449.414062 12.714844 448.917969 11.867188 448.554688 11.066406 L 448.523438 11.078125 C 448.578125 12.011719 448.589844 12.902344 448.589844 14.136719 L 448.589844 17.304688 L 447.6875 17.304688 "/>
<path fill-rule="nonzero" fill="rgb(82.063293%, 11.061096%, 21.353149%)" fill-opacity="1" d="M 456.363281 10.703125 L 454.109375 10.703125 L 454.109375 9.890625 L 459.597656 9.890625 L 459.597656 10.703125 L 457.332031 10.703125 L 457.332031 17.304688 L 456.363281 17.304688 L 456.363281 10.703125 "/>
<path fill-rule="nonzero" fill="rgb(82.063293%, 11.061096%, 21.353149%)" fill-opacity="1" d="M 463.078125 17.425781 C 461.109375 17.425781 459.746094 15.90625 459.746094 13.660156 C 459.746094 11.308594 461.195312 9.769531 463.175781 9.769531 C 465.210938 9.769531 466.519531 11.320312 466.519531 13.519531 C 466.519531 16.058594 464.96875 17.425781 463.089844 17.425781 Z M 463.132812 16.644531 C 464.648438 16.644531 465.507812 15.246094 465.507812 13.5625 C 465.507812 12.089844 464.738281 10.550781 463.144531 10.550781 C 461.550781 10.550781 460.757812 12.035156 460.757812 13.640625 C 460.757812 15.203125 461.613281 16.644531 463.121094 16.644531 L 463.132812 16.644531 "/>
<path fill-rule="nonzero" fill="rgb(82.063293%, 11.061096%, 21.353149%)" fill-opacity="1" d="M 469.195312 17.304688 L 466.765625 9.890625 L 467.8125 9.890625 L 468.964844 13.539062 C 469.273438 14.542969 469.550781 15.457031 469.757812 16.3125 L 469.777344 16.3125 C 469.988281 15.457031 470.285156 14.519531 470.625 13.550781 L 471.878906 9.890625 L 472.902344 9.890625 L 470.253906 17.304688 L 469.195312 17.304688 "/>
<path fill-rule="nonzero" fill="rgb(82.063293%, 11.061096%, 21.353149%)" fill-opacity="1" d="M 477.582031 13.828125 L 474.710938 13.828125 L 474.710938 16.5 L 477.925781 16.5 L 477.925781 17.304688 L 473.742188 17.304688 L 473.742188 9.890625 L 477.757812 9.890625 L 477.757812 10.691406 L 474.710938 10.691406 L 474.710938 13.035156 L 477.582031 13.035156 Z M 477.417969 8.207031 L 476.011719 9.492188 L 475.230469 9.492188 L 476.253906 8.207031 L 477.417969 8.207031 "/>
<path fill-rule="nonzero" fill="rgb(82.063293%, 11.061096%, 21.353149%)" fill-opacity="1" d="M 486.667969 17.0625 C 486.328125 17.238281 485.613281 17.414062 484.710938 17.414062 C 482.621094 17.414062 481.058594 16.09375 481.058594 13.660156 C 481.058594 11.339844 482.632812 9.78125 484.929688 9.78125 C 485.84375 9.78125 486.4375 9.976562 486.691406 10.097656 L 486.449219 10.890625 C 486.097656 10.714844 485.578125 10.582031 484.964844 10.582031 C 483.226562 10.582031 482.070312 11.695312 482.070312 13.628906 C 482.070312 15.445312 483.113281 16.597656 484.90625 16.597656 C 485.503906 16.597656 486.097656 16.476562 486.480469 16.289062 L 486.667969 17.0625 "/>
<path fill-rule="nonzero" fill="rgb(82.063293%, 11.061096%, 21.353149%)" fill-opacity="1" d="M 491.566406 13.828125 L 488.695312 13.828125 L 488.695312 16.5 L 491.90625 16.5 L 491.90625 17.304688 L 487.726562 17.304688 L 487.726562 9.890625 L 491.742188 9.890625 L 491.742188 10.691406 L 488.695312 10.691406 L 488.695312 13.035156 L 491.566406 13.035156 L 491.566406 13.828125 "/>
<path fill-rule="nonzero" fill="rgb(82.063293%, 11.061096%, 21.353149%)" fill-opacity="1" d="M 493.039062 16.136719 C 493.46875 16.402344 494.082031 16.609375 494.742188 16.609375 C 495.722656 16.609375 496.292969 16.105469 496.292969 15.355469 C 496.292969 14.664062 495.898438 14.257812 494.898438 13.882812 C 493.6875 13.464844 492.9375 12.828125 492.9375 11.792969 C 492.9375 10.636719 493.894531 9.78125 495.335938 9.78125 C 496.085938 9.78125 496.644531 9.957031 496.964844 10.132812 L 496.699219 10.921875 C 496.46875 10.78125 495.976562 10.570312 495.304688 10.570312 C 494.292969 10.570312 493.90625 11.175781 493.90625 11.683594 C 493.90625 12.363281 494.359375 12.707031 495.382812 13.101562 C 496.636719 13.597656 497.261719 14.191406 497.261719 15.28125 C 497.261719 16.410156 496.425781 17.414062 494.675781 17.414062 C 493.960938 17.414062 493.183594 17.195312 492.785156 16.929688 L 493.039062 16.136719 "/>
<path fill-rule="nonzero" fill="rgb(82.063293%, 11.061096%, 21.353149%)" fill-opacity="1" d="M 500.050781 10.703125 L 497.792969 10.703125 L 497.792969 9.890625 L 503.28125 9.890625 L 503.28125 10.703125 L 501.015625 10.703125 L 501.015625 17.304688 L 500.050781 17.304688 L 500.050781 10.703125 "/>
<path fill-rule="nonzero" fill="rgb(82.063293%, 11.061096%, 21.353149%)" fill-opacity="1" d="M 506.136719 17.304688 L 506.136719 14.15625 L 503.78125 9.890625 L 504.882812 9.890625 L 505.929688 11.933594 C 506.203125 12.496094 506.433594 12.949219 506.664062 13.464844 L 506.6875 13.464844 C 506.886719 12.980469 507.148438 12.496094 507.433594 11.933594 L 508.5 9.890625 L 509.578125 9.890625 L 507.105469 14.148438 L 507.105469 17.304688 L 506.136719 17.304688 "/>
<path fill-rule="nonzero" fill="rgb(82.063293%, 11.061096%, 21.353149%)" fill-opacity="1" d="M 453.554688 23.179688 L 454.128906 23.179688 L 454.128906 27.085938 L 456 27.085938 L 456 27.5625 L 453.554688 27.5625 L 453.554688 23.179688 "/>
<path fill-rule="nonzero" fill="rgb(82.063293%, 11.061096%, 21.353149%)" fill-opacity="1" d="M 457.277344 23.179688 L 457.277344 27.5625 L 456.703125 27.5625 L 456.703125 23.179688 L 457.277344 23.179688 "/>
<path fill-rule="nonzero" fill="rgb(82.063293%, 11.061096%, 21.353149%)" fill-opacity="1" d="M 458.378906 27.5625 L 458.378906 23.179688 L 459 23.179688 L 460.398438 25.398438 C 460.71875 25.914062 460.976562 26.375 461.179688 26.824219 L 461.199219 26.816406 C 461.144531 26.230469 461.132812 25.699219 461.132812 25.019531 L 461.132812 23.179688 L 461.664062 23.179688 L 461.664062 27.5625 L 461.09375 27.5625 L 459.703125 25.339844 C 459.398438 24.851562 459.105469 24.351562 458.890625 23.875 L 458.871094 23.882812 C 458.902344 24.4375 458.910156 24.960938 458.910156 25.691406 L 458.910156 27.5625 L 458.378906 27.5625 "/>
<path fill-rule="nonzero" fill="rgb(82.063293%, 11.061096%, 21.353149%)" fill-opacity="1" d="M 463.332031 23.179688 L 463.332031 27.5625 L 462.761719 27.5625 L 462.761719 23.179688 L 463.332031 23.179688 "/>
<path fill-rule="nonzero" fill="rgb(82.063293%, 11.061096%, 21.353149%)" fill-opacity="1" d="M 466.695312 25.507812 L 464.996094 25.507812 L 464.996094 27.085938 L 466.894531 27.085938 L 466.894531 27.5625 L 464.425781 27.5625 L 464.425781 23.179688 L 466.800781 23.179688 L 466.800781 23.65625 L 464.996094 23.65625 L 464.996094 25.042969 L 466.695312 25.042969 L 466.695312 25.507812 "/>
<path fill-rule="nonzero" fill="rgb(82.063293%, 11.061096%, 21.353149%)" fill-opacity="1" d="M 469.007812 23.179688 L 469.574219 23.179688 L 469.574219 25.292969 L 469.59375 25.292969 C 469.710938 25.125 469.828125 24.96875 469.9375 24.824219 L 471.277344 23.179688 L 471.980469 23.179688 L 470.394531 25.042969 L 472.101562 27.5625 L 471.433594 27.5625 L 469.996094 25.414062 L 469.574219 25.894531 L 469.574219 27.5625 L 469.007812 27.5625 L 469.007812 23.179688 "/>
<path fill-rule="nonzero" fill="rgb(82.063293%, 11.061096%, 21.353149%)" fill-opacity="1" d="M 473.558594 26.1875 L 473.105469 27.5625 L 472.519531 27.5625 L 474.007812 23.179688 L 474.691406 23.179688 L 476.183594 27.5625 L 475.578125 27.5625 L 475.113281 26.1875 Z M 474.996094 25.742188 L 474.558594 24.480469 C 474.46875 24.195312 474.402344 23.9375 474.339844 23.683594 L 474.320312 23.683594 C 474.261719 23.9375 474.1875 24.207031 474.105469 24.476562 L 473.675781 25.742188 L 474.996094 25.742188 "/>
<path fill-rule="nonzero" fill="rgb(82.063293%, 11.061096%, 21.353149%)" fill-opacity="1" d="M 476.898438 23.246094 C 477.183594 23.1875 477.601562 23.148438 477.984375 23.148438 C 478.589844 23.148438 478.984375 23.265625 479.257812 23.511719 C 479.472656 23.703125 479.601562 24 479.601562 24.34375 C 479.601562 24.917969 479.230469 25.300781 478.777344 25.457031 L 478.777344 25.476562 C 479.109375 25.59375 479.308594 25.90625 479.421875 26.359375 C 479.5625 26.972656 479.667969 27.394531 479.753906 27.5625 L 479.167969 27.5625 C 479.097656 27.433594 478.996094 27.0625 478.882812 26.515625 C 478.75 25.914062 478.511719 25.683594 477.996094 25.664062 L 477.464844 25.664062 L 477.464844 27.5625 L 476.898438 27.5625 Z M 477.464844 25.238281 L 478.042969 25.238281 C 478.644531 25.238281 479.03125 24.90625 479.03125 24.40625 C 479.03125 23.835938 478.621094 23.59375 478.023438 23.59375 C 477.75 23.59375 477.5625 23.617188 477.464844 23.644531 L 477.464844 25.238281 "/>
<path fill-rule="nonzero" fill="rgb(82.063293%, 11.061096%, 21.353149%)" fill-opacity="1" d="M 484.210938 25.636719 C 484.179688 25.035156 484.140625 24.289062 484.140625 23.75 L 484.128906 23.75 C 483.972656 24.253906 483.796875 24.8125 483.574219 25.414062 L 482.800781 27.539062 L 482.371094 27.539062 L 481.65625 25.449219 C 481.449219 24.832031 481.28125 24.269531 481.15625 23.75 L 481.144531 23.75 C 481.132812 24.292969 481.097656 25.027344 481.058594 25.683594 L 480.941406 27.5625 L 480.402344 27.5625 L 480.707031 23.179688 L 481.429688 23.179688 L 482.175781 25.300781 C 482.359375 25.839844 482.503906 26.328125 482.617188 26.78125 L 482.632812 26.78125 C 482.75 26.339844 482.90625 25.855469 483.101562 25.300781 L 483.878906 23.179688 L 484.601562 23.179688 L 484.875 27.5625 L 484.316406 27.5625 L 484.210938 25.636719 "/>
<path fill-rule="nonzero" fill="rgb(82.063293%, 11.061096%, 21.353149%)" fill-opacity="1" d="M 486.570312 26.1875 L 486.117188 27.5625 L 485.53125 27.5625 L 487.019531 23.179688 L 487.703125 23.179688 L 489.199219 27.5625 L 488.59375 27.5625 L 488.125 26.1875 Z M 488.007812 25.742188 L 487.574219 24.480469 C 487.480469 24.195312 487.417969 23.9375 487.351562 23.683594 L 487.332031 23.683594 C 487.273438 23.9375 487.203125 24.207031 487.117188 24.476562 L 486.6875 25.742188 L 488.007812 25.742188 "/>
<path fill-rule="nonzero" fill="rgb(82.063293%, 11.061096%, 21.353149%)" fill-opacity="1" d="M 491.222656 23.179688 L 491.785156 23.179688 L 491.785156 25.292969 L 491.804688 25.292969 C 491.921875 25.125 492.039062 24.96875 492.148438 24.824219 L 493.488281 23.179688 L 494.191406 23.179688 L 492.605469 25.042969 L 494.3125 27.5625 L 493.644531 27.5625 L 492.210938 25.414062 L 491.785156 25.894531 L 491.785156 27.5625 L 491.222656 27.5625 L 491.222656 23.179688 "/>
<path fill-rule="nonzero" fill="rgb(82.063293%, 11.061096%, 21.353149%)" fill-opacity="1" d="M 495.769531 26.1875 L 495.3125 27.5625 L 494.730469 27.5625 L 496.21875 23.179688 L 496.902344 23.179688 L 498.394531 27.5625 L 497.789062 27.5625 L 497.324219 26.1875 Z M 497.207031 25.742188 L 496.769531 24.480469 C 496.679688 24.195312 496.613281 23.9375 496.550781 23.683594 L 496.53125 23.683594 C 496.472656 23.9375 496.398438 24.207031 496.316406 24.476562 L 495.886719 25.742188 L 497.207031 25.742188 "/>
<path fill-rule="nonzero" fill="rgb(82.063293%, 11.061096%, 21.353149%)" fill-opacity="1" d="M 502.324219 27.367188 C 502.070312 27.464844 501.5625 27.609375 500.972656 27.609375 C 500.3125 27.609375 499.765625 27.4375 499.335938 27.03125 C 498.957031 26.667969 498.726562 26.082031 498.726562 25.398438 C 498.726562 24.09375 499.628906 23.136719 501.097656 23.136719 C 501.605469 23.136719 502.007812 23.246094 502.195312 23.335938 L 502.050781 23.800781 C 501.816406 23.6875 501.523438 23.613281 501.085938 23.613281 C 500.019531 23.613281 499.320312 24.273438 499.320312 25.375 C 499.320312 26.484375 499.984375 27.140625 501.011719 27.140625 C 501.382812 27.140625 501.636719 27.085938 501.765625 27.023438 L 501.765625 25.71875 L 500.882812 25.71875 L 500.882812 25.261719 L 502.324219 25.261719 L 502.324219 27.367188 "/>
<path fill-rule="nonzero" fill="rgb(82.063293%, 11.061096%, 21.353149%)" fill-opacity="1" d="M 504.257812 23.179688 L 504.828125 23.179688 L 504.828125 26.113281 C 504.828125 27.277344 504.257812 27.636719 503.503906 27.636719 C 503.289062 27.636719 503.035156 27.589844 502.898438 27.53125 L 502.976562 27.070312 C 503.09375 27.113281 503.261719 27.152344 503.457031 27.152344 C 503.964844 27.152344 504.257812 26.925781 504.257812 26.070312 L 504.257812 23.179688 "/>
<path fill-rule="nonzero" fill="rgb(82.063293%, 11.061096%, 21.353149%)" fill-opacity="1" d="M 506.457031 23.179688 L 506.457031 25.78125 C 506.457031 26.757812 506.890625 27.171875 507.476562 27.171875 C 508.121094 27.171875 508.542969 26.742188 508.542969 25.78125 L 508.542969 23.179688 L 509.113281 23.179688 L 509.113281 25.742188 C 509.113281 27.085938 508.40625 27.636719 507.457031 27.636719 C 506.558594 27.636719 505.882812 27.125 505.882812 25.761719 L 505.882812 23.179688 Z M 506.910156 22.878906 C 506.730469 22.878906 506.597656 22.726562 506.597656 22.542969 C 506.597656 22.367188 506.734375 22.21875 506.917969 22.21875 C 507.101562 22.21875 507.230469 22.363281 507.230469 22.542969 C 507.230469 22.726562 507.105469 22.878906 506.917969 22.878906 Z M 508.113281 22.878906 C 507.933594 22.878906 507.800781 22.726562 507.800781 22.542969 C 507.800781 22.367188 507.9375 22.21875 508.128906 22.21875 C 508.308594 22.21875 508.4375 22.363281 508.4375 22.542969 C 508.4375 22.726562 508.316406 22.878906 508.121094 22.878906 L 508.113281 22.878906 "/>
</svg>
